<?xml version="1.0" standalone="no"?>
<!DOCTYPE svg PUBLIC "-//W3C//DTD SVG 20010904//EN"
 "http://www.w3.org/TR/2001/REC-SVG-20010904/DTD/svg10.dtd">
<svg version="1.0" xmlns="http://www.w3.org/2000/svg"
 width="1764.000000pt" height="1764.000000pt" viewBox="0 0 1764.000000 1764.000000"
 preserveAspectRatio="xMidYMid meet">
<metadata>
Created by potrace 1.11, written by Peter Selinger 2001-2013
</metadata>
<g transform="translate(0.000000,1764.000000) scale(0.100000,-0.100000)"
fill="#000000" stroke="none">
<path d="M7825 17584 c-33 -2 -145 -11 -250 -20 -2269 -186 -4371 -1354 -5760
-3199 -1027 -1366 -1615 -2962 -1725 -4685 -24 -371 -13 -941 26 -1345 159
-1664 800 -3256 1830 -4547 337 -421 754 -847 1171 -1195 276 -231 818 -616
979 -697 168 -84 368 -47 495 92 46 51 169 289 1141 2217 599 1188 2173 4309
3498 6935 2736 5427 2594 5144 2608 5190 46 148 4 307 -108 415 -60 56 -121
89 -360 192 -800 346 -1597 548 -2480 629 -166 15 -909 27 -1065 18z"/>
<path d="M13279 15762 c-115 -38 -200 -118 -271 -257 -72 -141 -2020 -3914
-4756 -9215 -1378 -2670 -2514 -4877 -2524 -4905 -54 -152 11 -364 141 -459
79 -58 480 -237 786 -351 944 -350 1887 -511 2890 -492 560 11 1027 65 1560
182 1875 413 3550 1498 4721 3057 508 678 908 1412 1197 2199 267 726 429
1456 504 2279 26 277 25 1139 0 1410 -37 393 -76 666 -147 1020 -425 2117
-1632 3999 -3350 5220 -211 150 -390 266 -460 299 -74 34 -209 40 -291 13z"/>
</g>
</svg>
